<svg data-v-423bf9ae="" xmlns="http://www.w3.org/2000/svg" viewBox="0 0 475.8779300918179 60" class="font"><!----><!----><!----><g data-v-423bf9ae="" id="b74c318a-9f72-41dc-ab43-302c7823959d" fill="black" transform="matrix(6.54307587140309,0,0,6.54307587140309,-4.580154009001973,-53.78408588696031)"><path d="M0.70 8.43L4.61 8.43L4.61 8.43Q6.26 8.43 7.14 8.81L7.14 8.81L7.14 8.81Q8.02 9.20 8.39 10.13L8.39 10.13L8.39 10.13Q8.75 11.06 8.75 12.81L8.75 12.81L8.75 12.81Q8.75 14.56 8.39 15.48L8.39 15.48L8.39 15.48Q8.02 16.41 7.14 16.79L7.14 16.79L7.14 16.79Q6.26 17.18 4.61 17.18L4.61 17.18L0.70 17.18L0.70 8.43ZM3.50 10.61L3.50 14.99L4.65 14.99L4.65 14.99Q5.26 14.99 5.50 14.80L5.50 14.80L5.50 14.80Q5.74 14.62 5.74 14.11L5.74 14.11L5.74 11.49L5.74 11.49Q5.74 10.99 5.50 10.80L5.50 10.80L5.50 10.80Q5.26 10.61 4.65 10.61L4.65 10.61L3.50 10.61ZM13.23 9.97L13.23 9.97Q14.90 9.97 15.67 10.56L15.67 10.56L15.67 10.56Q16.45 11.14 16.45 12.42L16.45 12.42L16.45 17.18L15.05 17.18L14.35 16.48L14.35 16.48Q13.82 16.93 13.21 17.16L13.21 17.16L13.21 17.16Q12.60 17.39 11.97 17.39L11.97 17.39L11.97 17.39Q10.70 17.39 10.11 16.81L10.11 16.81L10.11 16.81Q9.52 16.24 9.52 15.01L9.52 15.01L9.52 15.01Q9.52 14.15 9.88 13.65L9.88 13.65L9.88 13.65Q10.25 13.15 11.05 12.92L11.05 12.92L11.05 12.92Q11.86 12.70 13.23 12.70L13.23 12.70L13.65 12.70L13.65 12.07L13.65 12.07Q13.44 12.01 12.95 12.01L12.95 12.01L12.95 12.01Q11.65 12.01 10.18 12.38L10.18 12.38L9.84 10.44L9.84 10.44Q11.41 9.97 13.23 9.97L13.23 9.97ZM12.68 15.50L12.68 15.50Q13.23 15.50 13.44 15.39L13.44 15.39L13.44 15.39Q13.65 15.27 13.65 14.97L13.65 14.97L13.65 14.10L13.06 14.10L13.06 14.10Q12.52 14.10 12.31 14.22L12.31 14.22L12.31 14.22Q12.10 14.35 12.10 14.69L12.10 14.69L12.10 15.50L12.68 15.50ZM21.83 11.98L20.86 11.98L20.86 15.18L20.86 15.18Q21.27 15.25 21.69 15.27L21.69 15.27L21.56 17.16L21.56 17.16Q20.62 17.39 19.87 17.39L19.87 17.39L19.87 17.39Q18.94 17.39 18.50 17.02L18.50 17.02L18.50 17.02Q18.06 16.65 18.06 15.86L18.06 15.86L18.06 11.98L17.36 11.98L17.36 10.18L18.06 10.18L18.06 9.06L20.86 8.36L20.86 10.18L21.83 10.18L21.83 11.98ZM26.24 9.97L26.24 9.97Q27.90 9.97 28.68 10.56L28.68 10.56L28.68 10.56Q29.46 11.14 29.46 12.42L29.46 12.42L29.46 17.18L28.06 17.18L27.36 16.48L27.36 16.48Q26.82 16.93 26.21 17.16L26.21 17.16L26.21 17.16Q25.61 17.39 24.98 17.39L24.98 17.39L24.98 17.39Q23.70 17.39 23.11 16.81L23.11 16.81L23.11 16.81Q22.53 16.24 22.53 15.01L22.53 15.01L22.53 15.01Q22.53 14.15 22.89 13.65L22.89 13.65L22.89 13.65Q23.25 13.15 24.06 12.92L24.06 12.92L24.06 12.92Q24.86 12.70 26.24 12.70L26.24 12.70L26.66 12.70L26.66 12.07L26.66 12.07Q26.45 12.01 25.96 12.01L25.96 12.01L25.96 12.01Q24.65 12.01 23.18 12.38L23.18 12.38L22.85 10.44L22.85 10.44Q24.42 9.97 26.24 9.97L26.24 9.97ZM25.69 15.50L25.69 15.50Q26.24 15.50 26.45 15.39L26.45 15.39L26.45 15.39Q26.66 15.27 26.66 14.97L26.66 14.97L26.66 14.10L26.07 14.10L26.07 14.10Q25.52 14.10 25.31 14.22L25.31 14.22L25.31 14.22Q25.10 14.35 25.10 14.69L25.10 14.69L25.10 15.50L25.69 15.50ZM30.83 14.57L30.83 14.57Q32.23 15.02 33.67 15.02L33.67 15.02L33.67 15.02Q34.38 15.02 34.80 14.95L34.80 14.95L34.80 14.18L33.54 14.07L33.54 14.07Q32.45 13.97 31.80 13.67L31.80 13.67L31.80 13.67Q31.15 13.37 30.86 12.81L30.86 12.81L30.86 12.81Q30.56 12.25 30.56 11.35L30.56 11.35L30.56 11.35Q30.56 10.18 30.90 9.50L30.90 9.50L30.90 9.50Q31.23 8.82 31.98 8.52L31.98 8.52L31.98 8.52Q32.73 8.22 34.05 8.22L34.05 8.22L34.05 8.22Q35.77 8.22 37.34 8.64L37.34 8.64L36.99 10.88L36.99 10.88Q36.26 10.72 35.76 10.66L35.76 10.66L35.76 10.66Q35.25 10.60 34.72 10.60L34.72 10.60L34.72 10.60Q34.01 10.60 33.57 10.67L33.57 10.67L33.57 11.42L34.58 11.52L34.58 11.52Q36.29 11.69 37.05 12.37L37.05 12.37L37.05 12.37Q37.81 13.05 37.81 14.39L37.81 14.39L37.81 14.39Q37.81 15.95 36.92 16.67L36.92 16.67L36.92 16.67Q36.02 17.39 34.09 17.39L34.09 17.39L34.09 17.39Q32.10 17.39 30.44 16.88L30.44 16.88L30.83 14.57ZM42.91 11.98L41.94 11.98L41.94 15.18L41.94 15.18Q42.35 15.25 42.77 15.27L42.77 15.27L42.64 17.16L42.64 17.16Q41.71 17.39 40.95 17.39L40.95 17.39L40.95 17.39Q40.03 17.39 39.59 17.02L39.59 17.02L39.59 17.02Q39.14 16.65 39.14 15.86L39.14 15.86L39.14 11.98L38.44 11.98L38.44 10.18L39.14 10.18L39.14 9.06L41.94 8.36L41.94 10.18L42.91 10.18L42.91 11.98ZM47.39 17.39L47.39 17.39Q45.49 17.39 44.58 16.48L44.58 16.48L44.58 16.48Q43.68 15.58 43.68 13.68L43.68 13.68L43.68 13.68Q43.68 11.76 44.58 10.86L44.58 10.86L44.58 10.86Q45.47 9.97 47.39 9.97L47.39 9.97L47.39 9.97Q49.31 9.97 50.20 10.86L50.20 10.86L50.20 10.86Q51.10 11.76 51.10 13.68L51.10 13.68L51.10 13.68Q51.10 15.60 50.20 16.49L50.20 16.49L50.20 16.49Q49.31 17.39 47.39 17.39L47.39 17.39ZM46.69 15.29L47.54 15.29L47.54 15.29Q47.85 15.29 47.97 15.20L47.97 15.20L47.97 15.20Q48.09 15.12 48.09 14.90L48.09 14.90L48.09 12.07L47.24 12.07L47.24 12.07Q46.93 12.07 46.81 12.15L46.81 12.15L46.81 12.15Q46.69 12.24 46.69 12.46L46.69 12.46L46.69 15.29ZM53.62 10.18L54.39 11.10L54.39 11.10Q55.22 10.23 56.46 9.97L56.46 9.97L56.63 12.68L56.63 12.68Q56.31 12.71 55.78 12.90L55.78 12.90L55.78 12.90Q55.24 13.09 55.02 13.24L55.02 13.24L55.02 17.18L52.22 17.18L52.22 10.18L53.62 10.18ZM61.11 15.34L61.11 15.34Q62.27 15.34 63.60 14.98L63.60 14.98L63.94 16.91L63.94 16.91Q62.50 17.39 60.83 17.39L60.83 17.39L60.83 17.39Q58.93 17.39 58.02 16.48L58.02 16.48L58.02 16.48Q57.12 15.58 57.12 13.68L57.12 13.68L57.12 13.68Q57.12 11.76 58.02 10.86L58.02 10.86L58.02 10.86Q58.91 9.97 60.83 9.97L60.83 9.97L60.83 9.97Q62.12 9.97 62.82 10.19L62.82 10.19L62.82 10.19Q63.52 10.40 63.82 10.91L63.82 10.91L63.82 10.91Q64.12 11.42 64.12 12.35L64.12 12.35L64.12 12.35Q64.12 13.20 63.73 13.71L63.73 13.71L63.73 13.71Q63.34 14.21 62.48 14.43L62.48 14.43L62.48 14.43Q61.61 14.66 60.13 14.66L60.13 14.66L60.13 15.29L60.13 15.29Q60.42 15.34 61.11 15.34L61.11 15.34ZM61.10 12.00L61.10 12.00Q60.55 12.00 60.34 12.11L60.34 12.11L60.34 12.11Q60.13 12.22 60.13 12.53L60.13 12.53L60.13 13.26L60.63 13.26L60.63 13.26Q61.18 13.26 61.39 13.13L61.39 13.13L61.39 13.13Q61.60 13.01 61.60 12.67L61.60 12.67L61.60 12.00L61.10 12.00ZM73.43 17.18L70.32 17.18L69.02 15.09L67.79 17.18L64.75 17.18L67.44 12.57L64.85 8.43L67.96 8.43L69.16 10.36L70.29 8.43L73.33 8.43L70.74 12.88L73.43 17.18Z"></path></g><!----><!----></svg>